<?xml version="1.0" encoding="UTF-8" standalone="no"?>
<svg
   version="1.1"
   width="5.5505214in"
   height="5.9344778in"
   viewBox="0 0 399.63802 427.28325"
   id="svg1"
   sodipodi:docname="99e611c2853ff67939741097268b7620.cdr"
   xmlns:inkscape="http://www.inkscape.org/namespaces/inkscape"
   xmlns:sodipodi="http://sodipodi.sourceforge.net/DTD/sodipodi-0.dtd"
   xmlns="http://www.w3.org/2000/svg"
   xmlns:svg="http://www.w3.org/2000/svg">
  <defs
     id="defs1" />
  <sodipodi:namedview
     id="namedview1"
     pagecolor="#ffffff"
     bordercolor="#000000"
     borderopacity="0.25"
     inkscape:showpageshadow="2"
     inkscape:pageopacity="0.0"
     inkscape:pagecheckerboard="0"
     inkscape:deskcolor="#d1d1d1"
     inkscape:document-units="in" />
  <path
     d="m 179.47528,50.03 c -7.4184,0 -2.7127,0.6339 -6.2721,-3.7339 -1.1716,-1.4376 -3.0191,-2.1783 -3.0191,-4.1281 0,-3.8318 8.1729,-5.8215 11.2517,-8.0454 5.776,-4.1725 10.9043,-11.2613 10.9043,-3.3899 0,9.7836 -5.7113,19.2973 -12.8648,19.2973 z m -45.7414,-18.5825 c 2.1102,-0.9943 11.9066,4.2883 14.0843,5.2128 13.2586,5.6277 14.5042,1.1503 14.5042,11.9402 0,3.4198 -7.6904,5.003 -8.5765,5.003 -6.7146,0 -10.222,-4.0567 -13.9726,-7.4688 -1.9927,-1.8127 -2.9616,-4.0868 -4.0108,-6.71 -0.5855,-1.464 -1.013,-2.2243 -1.6246,-4.1755 -0.2863,-0.9133 -0.374,-0.8156 -0.5264,-2.1819 z M 94.424676,82.192 c -43.7007,0 -43.8206,-9.0489 -64.3775,-11.3863 -13.5391,-1.5393 -16.6848,2.2065 -22.541,10.9479 -8.8356,13.1888 -7.42329998,23.9194 -7.42329998,41.1769 0,48.1389 10.16279998,84.2512 32.90029998,123.6214 l 10.8806,15.5638 c 1.6537,1.8468 2.2297,2.9192 3.9115,4.6649 l 8.5878,9.2801 c 3.0517,3.0163 5.5471,5.5406 8.5797,8.5733 9.507,9.5067 9.8255,10.8674 21.7865,21.8108 4.7592,4.3544 6.8451,2.8418 9.1249,2.3108 0,-10.3895 -2.7581,-12.3946 -5.619,-19.3961 -2.4982,-6.1141 -4.8979,-11.2597 -6.842,-18.1728 -2.2839,-8.1207 -12.13,-46.6728 -3.7112,-57.9365 13.5158,-18.0828 36.411704,16.1724 39.757604,16.1724 7.4978,0 1.1967,-7.5716 8.0702,-21.2332 6.3884,-12.6979 28.4604,-16.955 35.5486,-3.0884 7.7697,15.1996 8.1924,21.2531 13.8598,34.7405 15.3034,36.4198 15.4357,46.7931 37.6151,85.3154 12.2033,21.1955 32.4639,53.8924 50.52,71.6957 l 5.7122,6.4379 c 7.8248,8.1295 17.0767,18.2216 27.0369,22.2827 3.2339,1.3185 6.9584,3.5296 8.177,-1.0345 l 0.1453,-2.2354 c -0.5292,-2.323 -3.0406,-5.3718 -4.34,-8.5787 -13.4388,-33.1633 -20.8149,-50.0278 -30.6714,-85.112 -7.1678,-25.5145 -10.4061,-42.2858 -14.0506,-68.1412 -2.3185,-16.4504 -3.2573,-43.8054 -3.2573,-61.0667 0,-8.1195 2.1929,-15.2057 5.5993,-20.1303 12.6975,-18.357 30.2492,-10.8456 36.6595,7.1747 5.1617,14.5097 7.9055,6.3368 10.6624,1.5525 1.3337,-2.3147 2.6451,-4.8931 4.1177,-7.3174 5.5613,-9.1545 3.9924,-10.5828 16.5764,-10.5828 9.5957,0 21.3009,22.8664 26.224,31.6677 8.9356,15.9745 6.0813,13.7301 11.648,27.6612 6.0614,15.1696 5.8283,12.7546 8.7791,29.8154 1.4216,8.2189 1.5314,15.2036 5.5229,15.2036 5.9689,0 11.8991,-23.8496 13.8278,-30.4844 7.0266,-24.1716 6.1842,-32.7386 6.1842,-57.4251 0,-33.1894 -19.2903,-86.395 -34.529,-111.9871 -5.4206,-9.1036 -7.384,-9.7942 -12.6417,-16.6612 l -14.1013,-15.202 c -13.5003,-13.0376 -28.4298,-10.2552 -43.7977,-2.6724 -2.9899,1.4753 -3.4577,2.0142 -6.1413,3.8645 -7.2977,5.0319 -14.597,13.2953 -26.7284,13.2953 -21.7863,0 -35.5486,-7.5264 -50.751,-19.2907 C 191.82088,23.1087 181.11608,0 155.88998,0 c -37.2264,0 -22.2264,47.4781 -37.465,69.7419 -4.7709,6.9701 -12.6258,12.4501 -24.000304,12.4501 z"
     style="fill:#000000;fill-rule:evenodd"
     id="path1" />
</svg>
