<svg viewBox="124.928 239.616 747.52 522.24" shape-rendering="geometricPrecision" xmlns="http://www.w3.org/2000/svg" style="max-height: 500px" width="747.52" height="522.24">
  <metadata>null</metadata>

<path fill-rule="evenodd" fill="rgb(0,0,0)" opacity="1" d="M 150.345 719.054&#10;C 153.493 714.46 156.244 709.594 159.303 704.943&#10;C 161.532 706.191 163.479 707.953 165.712 709.238&#10;C 171.21 712.402 177.554 714.531 183.965 713.796&#10;C 189.111 713.206 196.341 708.119 191.429 702.48&#10;C 188.566 699.194 183.119 698.41 179.12 697.331&#10;C 169.226 694.664 157.169 691.567 153.848 680.467&#10;C 151.6 672.955 152.939 664.397 158.158 658.42&#10;C 161.875 654.161 167.502 651.436 172.94 650.186&#10;C 185.628 647.271 199.594 650.207 210.132 657.772&#10;C 209.721 659.538 208.337 661.256 207.428 662.814&#10;C 205.548 666.032 203.501 669.152 201.654 672.387&#10;C 201.17 672.534 200.387 671.643 199.985 671.401&#10;C 198.51 670.514 197.08 669.53 195.523 668.785&#10;C 190.264 666.271 184.196 664.798 178.401 666.098&#10;C 175.887 666.662 172.917 668.202 172.278 670.93&#10;C 171.565 673.972 173.133 676.339 175.713 677.808&#10;C 179.581 680.011 184.425 680.967 188.716 682.035&#10;C 197.236 684.158 207.168 687.913 210.686 696.698&#10;C 211.606 698.995 212.101 701.584 212.228 704.05&#10;C 212.347 706.336 212.191 708.623 211.666 710.853&#10;C 211.186 712.896 210.368 714.914 209.354 716.748&#10;C 200.482 732.794 177.511 732.685 162.613 726.807&#10;C 157.982 724.981 154.308 722.162 150.158 719.558&#10;C 150.22 719.39 150.283 719.222 150.345 719.054 Z"/>
<path fill-rule="evenodd" fill="rgb(0,0,0)" opacity="1" d="M 218.48 685.107&#10;C 219.865 676.013 222.568 668.188 228.719 661.141&#10;C 240.104 648.099 260.682 645.513 275.463 653.901&#10;C 286.703 660.28 292.372 672.897 293.603 685.3&#10;C 293.872 688.015 293.796 690.77 293.766 693.495&#10;C 293.757 694.334 293.996 695.753 293.535 696.491&#10;C 288.728 696.125 283.822 696.391 279.003 696.392&#10;C 270.669 696.394 262.335 696.325 254.001 696.319&#10;C 250.335 696.316 246.666 696.304 243.001 696.388&#10;C 241.677 696.418 239.865 696.065 238.678 696.707&#10;C 239.274 699.432 239.916 701.963 241.479 704.324&#10;C 247.376 713.228 259.059 714.863 268.636 711.711&#10;C 272.548 710.423 275.556 708.159 279.115 706.253&#10;C 281.936 708.905 283.945 713.081 286.296 716.179&#10;C 286.996 717.102 288.797 718.73 288.91 719.861&#10;C 287.858 721.035 286.159 721.881 284.83 722.721&#10;C 281.157 725.041 277.32 726.946 273.172 728.254&#10;C 255.19 733.926 234.191 728.752 224.139 711.946&#10;C 222.182 708.674 220.7 705.092 219.777 701.39&#10;C 218.456 696.094 217.949 690.549 218.48 685.107 Z&#10;M 238.956 681.106&#10;C 238.921 681.31 238.887 681.515 238.852 681.719&#10;C 239.549 682.04 240.844 681.773 241.624 681.766&#10;C 243.585 681.751 245.546 681.756 247.507 681.762&#10;C 253.34 681.779 259.174 681.778 265.007 681.763&#10;C 267.674 681.756 271.119 681.205 273.7 681.857&#10;C 273.07 677.82 271.99 673.775 269.126 670.702&#10;C 262.756 663.864 251.049 664.391 244.454 670.583&#10;C 241.409 673.441 239.852 677.109 238.956 681.106 Z"/>
<path fill-rule="evenodd" fill="rgb(0,0,0)" opacity="1" d="M 303.119 619.681&#10;C 309.706 619.276 316.424 619.431 323.019 619.592&#10;C 323.233 626.199 322.956 632.88 322.959 639.508&#10;C 322.968 654.352 322.957 669.16 322.923 684.006&#10;C 322.91 689.436 322.901 694.866 322.917 700.296&#10;C 322.925 703.317 322.82 706.652 324.679 709.216&#10;C 326.359 711.535 329.063 712.112 331.78 712.039&#10;C 332.91 712.009 334.329 711.6 335.426 711.883&#10;C 335.266 717.681 335.798 723.632 335.302 729.401&#10;C 333.239 730.082 330.657 729.889 328.506 729.935&#10;C 316.441 730.192 306.376 723.419 303.825 711.363&#10;C 302.937 707.162 303.239 702.77 303.243 698.506&#10;C 303.249 692.339 303.224 686.172 303.224 680.005&#10;C 303.224 659.897 303.22 639.788 303.119 619.681 Z"/>
<path fill-rule="evenodd" fill="rgb(0,0,0)" opacity="1" d="M 334.855 651.551&#10;C 334.89 651.325 334.925 651.099 334.96 650.873&#10;C 338.561 650.866 342.245 650.991 345.839 650.795&#10;C 345.307 642.67 346.453 634.164 351.433 627.488&#10;C 358.847 617.547 374.777 615.654 385.973 619.023&#10;C 386.449 620.843 386.141 623.088 386.149 624.966&#10;C 386.166 628.728 386.419 632.749 385.893 636.477&#10;C 379.257 634.46 369.128 633.951 366.242 641.887&#10;C 365.732 643.288 365.737 644.761 365.716 646.234&#10;C 365.699 647.497 365.301 649.832 365.884 650.932&#10;C 369.704 650.604 373.672 650.91 377.506 650.928&#10;C 379.579 650.937 382.146 650.528 384.148 651.102&#10;C 384.266 655.223 384.156 659.37 384.155 663.498&#10;C 384.154 664.369 384.636 667.209 384.06 667.869&#10;C 378.069 667.611 371.788 667.385 365.813 667.893&#10;C 365.265 669.442 365.702 671.835 365.699 673.5&#10;C 365.692 677.667 365.685 681.834 365.682 686.001&#10;C 365.672 700.257 365.399 714.586 365.811 728.833&#10;C 359.314 728.385 352.609 728.739 346.098 728.842&#10;C 345.228 722.748 346.053 716.15 346.067 709.994&#10;C 346.098 695.921 346.494 681.773 346.089 667.711&#10;C 342.377 667.745 338.629 667.303 334.924 667.478&#10;C 334.494 665.83 334.855 663.715 334.852 662.005&#10;C 334.847 658.533 334.705 655.018 334.855 651.551 Z"/>
<path fill-rule="evenodd" fill="rgb(0,0,0)" opacity="1" d="M 335.96 281.106&#10;C 336.146 279.505 337.426 277.819 338.92 277.159&#10;C 340.122 276.628 341.722 276.779 343.007 276.762&#10;C 346.493 276.716 352.268 275.883 353.638 280.21&#10;C 354.275 282.222 353.799 284.989 353.8 287.082&#10;C 353.803 292.054 353.845 297.026 353.834 301.999&#10;C 353.801 318.165 353.859 334.332 353.831 350.498&#10;C 353.825 354.081 353.762 357.662 353.729 361.244&#10;C 353.711 363.067 353.493 365.182 354.068 366.941&#10;C 355.042 369.915 357.951 371.444 360.875 371.751&#10;C 362.127 371.883 363.397 371.845 364.635 371.611&#10;C 365.427 371.462 366.227 371.221 366.971 370.913&#10;C 371.446 369.065 370.872 364.453 370.877 360.39&#10;C 370.882 356.426 370.887 352.461 370.896 348.497&#10;C 370.932 332.141 371.117 315.777 371.069 299.426&#10;C 371.056 294.785 371.06 290.143 371.075 285.502&#10;C 371.081 283.738 370.641 281.187 371.492 279.59&#10;C 373.528 275.766 378.63 276.5 382.324 276.547&#10;C 383.145 276.557 383.999 276.57 384.804 276.751&#10;C 389.507 277.805 388.687 282.833 388.675 286.5&#10;C 388.664 290.167 388.69 293.835 388.692 297.503&#10;C 388.704 313.17 388.733 328.836 388.737 344.503&#10;C 388.738 349.101 388.756 353.7 388.681 358.298&#10;C 388.638 360.981 388.257 363.93 388.876 366.565&#10;C 390.093 371.743 396.587 372.347 400.785 371.028&#10;C 405.966 369.399 405.867 364.992 405.882 360.452&#10;C 405.895 356.467 405.926 352.482 405.925 348.497&#10;C 405.923 333.331 405.885 318.166 405.876 303&#10;C 405.872 295.723 405.098 288.024 405.851 280.791&#10;C 406.014 279.225 407.128 277.717 408.593 277.077&#10;C 409.803 276.549 411.347 276.657 412.641 276.628&#10;C 415.943 276.554 421.538 275.505 423.294 279.165&#10;C 424.415 281.499 423.646 285.458 423.651 288.001&#10;C 423.667 295 423.668 301.999 423.659 308.998&#10;C 423.635 328.833 423.67 348.67 423.738 368.504&#10;C 423.756 373.669 423.761 378.833 423.763 383.997&#10;C 423.765 388.659 423.827 393.255 421.893 397.611&#10;C 418.887 404.381 412.769 408.133 407.435 412.846&#10;C 401.01 418.523 395.875 424.863 392.991 433.031&#10;C 390.198 440.942 391.195 449.759 391.24 458.002&#10;C 391.312 471.502 391.186 485.003 391.351 498.502&#10;C 391.542 514.171 391.706 529.828 391.744 545.504&#10;C 391.753 549.268 391.735 553.032 391.792 556.795&#10;C 391.83 559.332 392.102 561.549 390.526 563.706&#10;C 387.214 568.235 379.1 567.566 374.13 567.164&#10;C 365.433 566.46 367.68 555.495 367.694 549.503&#10;C 367.735 530.505 367.782 511.506 367.817 492.508&#10;C 367.839 480.673 367.867 468.838 367.882 457.003&#10;C 367.894 447.107 368.207 437.397 363.835 428.23&#10;C 361.251 422.811 357.416 418.28 352.942 414.326&#10;C 346.428 408.568 339.201 403.723 336.779 394.849&#10;C 335.427 389.893 335.935 384.581 335.928 379.499&#10;C 335.915 370.999 335.953 362.499 335.945 353.998&#10;C 335.93 337.838 336.077 321.674 336.044 305.517&#10;C 336.033 300.176 335.987 294.835 335.958 289.494&#10;C 335.942 286.734 335.641 283.852 335.96 281.106 Z"/>
<path fill-rule="evenodd" fill="rgb(0,0,0)" opacity="1" d="M 406.465 504.627&#10;C 407.034 499.858 406.593 494.802 406.586 490&#10;C 406.573 480.665 406.554 471.329 406.556 461.993&#10;C 406.559 451.353 406.669 441.832 412.632 432.595&#10;C 413.267 432.435 413.302 433.563 413.321 434.172&#10;C 413.374 435.845 413.627 437.452 413.817 439.11&#10;C 414.298 443.305 415.312 447.431 416.331 451.521&#10;C 419.449 464.033 425.339 475.825 432.536 486.462&#10;C 452.868 516.513 489.215 535.24 525.383 535.24&#10;C 572.916 535.239 617.754 503.555 632.625 458.249&#10;C 638.849 439.286 640.044 417.651 635.582 398.177&#10;C 633.966 391.126 631.659 384.565 629.082 377.847&#10;C 632.896 374.73 638.098 371.301 640.452 366.85&#10;C 642.144 363.65 642.191 359.405 641.441 355.938&#10;C 641.01 353.941 640.083 352.227 639.1 350.456&#10;C 642.067 348.309 644.768 345.648 647.541 343.265&#10;C 650.17 346.497 652.083 350.818 654.001 354.506&#10;C 660.199 366.43 664.783 379.319 667.529 392.488&#10;C 673.999 423.526 670.236 456.564 656.702 485.264&#10;C 632.05 537.539 574.826 572.062 516.912 567.744&#10;C 483.805 565.276 450.424 551.671 426.468 528.371&#10;C 421.037 523.089 416.01 517.629 411.154 511.808&#10;C 409.622 509.971 406.487 507.099 406.465 504.627 Z"/>
<path fill-rule="evenodd" fill="rgb(0,0,0)" opacity="1" d="M 421.784 621.339&#10;C 426.522 621.385 431.272 621.292 436.011 621.259&#10;C 437.307 621.249 440.356 620.7 441.413 621.381&#10;C 441.021 629.549 441.385 637.829 441.427 646.008&#10;C 441.446 649.484 441.859 653.23 441.395 656.667&#10;C 441.346 656.995 442.592 655.803 442.791 655.629&#10;C 443.677 654.854 444.522 654.094 445.503 653.432&#10;C 448.281 651.559 451.71 650.488 454.97 649.832&#10;C 464.893 647.835 475.73 650.976 482.994 658.013&#10;C 492.479 667.202 493.172 679.11 493.163 691.497&#10;C 493.158 697.83 493.147 704.164 493.153 710.498&#10;C 493.158 715.233 493.194 719.969 493.159 724.704&#10;C 493.151 725.761 493.221 726.814 493.218 727.87&#10;C 493.217 727.962 493.224 728.89 493.084 728.898&#10;C 486.554 728.639 479.901 728.737 473.369 728.929&#10;C 472.933 725.031 473.296 720.931 473.29 717.008&#10;C 473.276 709.008 473.274 701.008 473.277 693.009&#10;C 473.279 686.681 473.913 679.779 470.518 674.124&#10;C 464.28 663.734 447.146 664.873 442.45 675.969&#10;C 440.176 681.344 441.325 688.279 441.334 694&#10;C 441.352 705.55 440.722 717.318 441.377 728.842&#10;C 435.046 728.74 428.212 728.147 421.928 728.953&#10;C 421.568 726.542 421.819 723.943 421.818 721.507&#10;C 421.816 716.84 421.815 712.174 421.813 707.507&#10;C 421.806 693.007 421.767 678.507 421.762 664.007&#10;C 421.759 654.507 421.746 645.006 421.725 635.506&#10;C 421.715 631.014 420.916 625.734 421.784 621.339 Z"/>
<path fill-rule="evenodd" fill="rgb(0,0,0)" opacity="1" d="M 440.472 415.105&#10;C 441.8 406.542 443.049 398.115 446.442 390.046&#10;C 460.187 357.367 493.134 335.211 528.763 336.325&#10;C 538.462 336.628 547.46 338.573 556.593 341.758&#10;C 558.877 342.554 561.064 343.608 563.234 344.669&#10;C 564.238 345.16 565.651 345.616 566.389 346.482&#10;C 565.732 347.676 564.332 348.589 563.328 349.498&#10;C 561.2 351.425 559.089 353.369 556.952 355.286&#10;C 553.036 358.798 548.975 362.146 545.103 365.701&#10;C 542.455 368.132 540.125 370.996 537.405 373.333&#10;C 536.209 373.726 534.012 372.785 532.773 372.554&#10;C 530.05 372.047 527.202 371.89 524.437 371.898&#10;C 514.618 371.93 504.287 375.172 496.444 381.099&#10;C 488.845 386.842 483.337 394.312 479.658 403.063&#10;C 476.539 410.481 474.697 420.148 476.125 428.154&#10;C 476.871 432.334 477.437 436.405 478.948 440.418&#10;C 484.374 454.822 496.327 466.299 511.195 470.594&#10;C 533.584 477.062 558.344 467.439 569.493 446.657&#10;C 571.739 442.471 573.254 437.873 574.184 433.227&#10;C 575.06 428.847 575.689 424.21 575.075 419.753&#10;C 577.293 418.288 579.816 417.197 582.082 415.775&#10;C 587.575 412.328 592.933 408.555 598.058 404.581&#10;C 600.127 402.977 601.999 401.168 603.983 399.469&#10;C 604.758 398.806 605.614 397.854 606.635 397.715&#10;C 608.032 400.273 608.521 403.473 609.086 406.303&#10;C 610.435 413.062 610.937 420.14 610.461 427.008&#10;C 609.926 434.724 608.802 442.205 606.346 449.577&#10;C 599.474 470.205 584.612 487.372 565.597 497.743&#10;C 539.693 511.872 506.45 510.747 481.284 495.486&#10;C 466.782 486.691 454.985 473.741 447.932 458.304&#10;C 441.834 444.953 438.995 429.756 440.472 415.105 Z"/>
<path fill-rule="evenodd" fill="rgb(0,0,0)" opacity="1" d="M 441.313 304.427&#10;C 444.612 301.304 448.715 298.802 452.647 296.567&#10;C 458.91 293.006 465.192 289.59 471.866 286.854&#10;C 503.398 273.929 540.026 272.326 572.373 283.513&#10;C 583.548 287.377 593.814 292.319 604.069 298.196&#10;C 606.623 299.66 609.105 301.258 611.408 303.095&#10;C 611.846 303.444 613.329 304.341 613.253 304.902&#10;C 612.752 305.784 611.557 306.434 610.795 307.092&#10;C 609.228 308.446 607.725 309.887 606.172 311.259&#10;C 601.896 315.037 597.611 318.811 593.31 322.561&#10;C 591.7 323.965 590.218 325.737 588.481 326.966&#10;C 585.753 326.262 582.834 323.607 580.334 322.243&#10;C 575.439 319.574 570.213 317.295 564.952 315.45&#10;C 541.756 307.314 516.174 307.01 492.708 314.238&#10;C 479.588 318.279 467.188 325.023 456.403 333.482&#10;C 452.281 336.716 448.542 340.292 444.78 343.932&#10;C 444.204 344.49 441.804 347.534 441.194 347.192&#10;C 440.898 344.037 441.28 340.69 441.283 337.506&#10;C 441.291 330.673 441.256 323.84 441.226 317.008&#10;C 441.213 314.152 441.207 311.297 441.194 308.441&#10;C 441.189 307.227 440.834 305.531 441.313 304.427 Z"/>
<path fill-rule="evenodd" fill="rgb(0,0,0)" opacity="1" d="M 501.969 430.277&#10;C 516.36 437.43 533.434 434.839 548.291 430.994&#10;C 547.837 436.984 542.864 441.633 538.021 444.565&#10;C 524.368 452.83 505.939 445.716 501.969 430.277 Z"/>
<path fill-rule="evenodd" fill="rgb(0,0,0)" opacity="1" d="M 503.804 419.358&#10;C 505.562 417.508 507.63 416.003 509.518 414.283&#10;C 515.456 408.874 521.584 403.68 527.532 398.287&#10;C 541.435 385.682 555.427 373.12 569.562 360.78&#10;C 577.292 354.031 584.872 347.106 592.507 340.253&#10;C 596.575 336.601 600.812 331.94 605.628 329.312&#10;C 606.557 329.882 607.349 331.325 608.01 332.199&#10;C 609.295 333.898 610.678 335.524 612.018 337.179&#10;C 616.277 342.444 621.008 347.306 625.38 352.472&#10;C 627.015 354.403 630.458 357.626 630.484 360.325&#10;C 629.857 362.43 626.953 364.467 625.366 365.916&#10;C 620.912 369.985 616.399 373.986 611.954 378.063&#10;C 592.057 396.309 570.863 414.125 544.319 421.515&#10;C 534.362 424.287 523.366 425.61 513.15 423.568&#10;C 510.718 423.082 508.098 422.374 505.839 421.344&#10;C 504.809 420.874 503.62 420.569 503.804 419.358 Z"/>
<path fill-rule="evenodd" fill="rgb(0,0,0)" opacity="1" d="M 504.21 651.166&#10;C 506.415 650.728 508.769 650.925 511.008 650.922&#10;C 515.274 650.916 519.545 650.999 523.808 650.96&#10;C 524.785 654.512 523.96 659.324 523.96 663.015&#10;C 523.962 671.943 523.926 680.872 523.896 689.8&#10;C 523.879 694.995 523.443 700.827 525.996 705.543&#10;C 531.755 716.177 548.804 714.523 553.366 703.702&#10;C 555.514 698.608 554.591 691.82 554.602 686.411&#10;C 554.625 674.785 554.666 663.149 554.511 651.526&#10;C 555.246 650.586 557.21 650.918 558.354 650.9&#10;C 562.239 650.84 566.125 650.914 570.01 650.906&#10;C 570.72 650.904 573.995 650.516 574.31 651.065&#10;C 574.768 669.18 574.26 687.377 574.262 705.501&#10;C 574.263 710.666 574.265 715.832 574.286 720.998&#10;C 574.296 723.557 574.001 726.353 574.324 728.881&#10;C 568.069 728.501 561.104 728.246 554.881 729&#10;C 554.192 726.888 555.003 724.335 554.682 722.143&#10;C 551.02 725.603 547.124 728.283 542.211 729.657&#10;C 527.771 733.695 512.527 725.092 506.967 711.528&#10;C 503.855 703.938 504.294 696.047 504.282 688.007&#10;C 504.264 675.743 504.634 663.422 504.21 651.166 Z"/>
<path fill-rule="evenodd" fill="rgb(0,0,0)" opacity="1" d="M 585.951 652.1&#10;C 585.967 651.929 585.984 651.758 586 651.587&#10;C 587.4 650.55 589.801 650.937 591.505 650.934&#10;C 595.887 650.927 600.452 650.607 604.811 651.065&#10;C 604.822 652.979 604.68 655.162 605.249 657.002&#10;C 608.159 654.812 610.459 652.565 613.993 651.246&#10;C 629.773 645.356 647.474 652.695 654.236 668.1&#10;C 658.606 678.055 657.258 689.413 657.257 700&#10;C 657.256 707.333 657.213 714.666 657.208 721.999&#10;C 657.206 723.809 657.231 725.619 657.239 727.429&#10;C 657.24 727.646 657.353 728.872 657.12 728.919&#10;C 650.565 728.501 643.957 728.995 637.401 728.909&#10;C 637.677 717.469 637.33 705.953 637.358 694.501&#10;C 637.373 688.429 638.302 681.512 635.714 675.833&#10;C 630.242 663.823 612.289 664.31 606.826 676.024&#10;C 604.395 681.237 605.378 687.918 605.405 693.507&#10;C 605.461 705.228 606.14 717.224 605.406 728.918&#10;C 600.933 728.505 596.266 728.874 591.776 728.889&#10;C 589.995 728.894 587.735 729.235 586.023 728.773&#10;C 585.242 715.27 585.958 701.529 585.954 687.997&#10;C 585.951 676.117 585.169 663.951 585.951 652.1 Z"/>
<path fill-rule="evenodd" fill="rgb(0,0,0)" opacity="1" d="M 609.438 325.454&#10;C 612.863 321.961 616.911 319.042 620.545 315.771&#10;C 631.598 305.821 642.895 296.15 654.022 286.285&#10;C 660.175 280.829 666.33 275.384 672.57 270.024&#10;C 675.759 267.285 678.745 263.742 682.421 261.641&#10;C 684.106 260.678 685.958 260.133 687.887 260.006&#10;C 700.882 259.15 710.37 274.55 704.317 285.952&#10;C 702.381 289.6 698.337 291.923 694.224 291.396&#10;C 691.275 291.018 687.853 289.205 685.112 291.165&#10;C 682.664 292.916 681.279 295.846 679.44 298.156&#10;C 675.769 302.769 672.178 307.264 667.597 311.045&#10;C 662.087 315.594 656.472 319.831 650.334 323.507&#10;C 645.71 326.276 639.866 328.9 636.289 333.007&#10;C 635.961 334.508 637.123 335.94 636.816 337.308&#10;C 633.069 340.312 629.468 343.583 625.555 346.369&#10;C 625.086 346.079 624.723 345.224 624.367 344.764&#10;C 623.323 343.413 622.293 342.05 621.207 340.733&#10;C 618.562 337.527 615.902 334.327 613.176 331.189&#10;C 611.774 329.574 609.706 327.941 609.008 325.88&#10;C 609.151 325.738 609.294 325.596 609.438 325.454 Z&#10;M 622.538 326.643&#10;C 623.338 333.807 634.088 332.896 633.232 325.64&#10;C 632.433 318.864 621.783 319.872 622.538 326.643 Z&#10;M 650.95 301.595&#10;C 649.701 308.331 659.941 310.378 661.228 303.787&#10;C 662.548 297.027 652.224 294.725 650.95 301.595 Z&#10;M 681.339 275.513&#10;C 679.075 281.721 688.84 285.714 691.456 279.597&#10;C 694.313 272.917 683.853 268.618 681.339 275.513 Z"/>
<path fill-rule="evenodd" fill="rgb(0,0,0)" opacity="1" d="M 662.782 651.264&#10;C 665.83 649.969 670.632 650.945 673.925 650.864&#10;C 674.405 649.181 673.925 646.774 673.932 645&#10;C 673.948 640.549 674.115 636.058 673.971 631.613&#10;C 675.385 630.85 677.9 631.31 679.509 631.297&#10;C 684.206 631.259 689.008 631.57 693.688 631.201&#10;C 693.991 633.571 693.719 636.111 693.721 638.503&#10;C 693.724 642.675 693.805 646.859 693.758 651.028&#10;C 699.773 650.621 705.939 650.874 711.964 651.003&#10;C 711.581 656.577 711.931 662.601 712.149 668.194&#10;C 706.035 668.581 699.8 667.936 693.666 668.162&#10;C 694.091 678.07 693.644 688.082 693.649 698.001&#10;C 693.651 702.46 693.266 707.677 697.294 710.673&#10;C 699.908 712.618 703.699 712.911 706.826 712.506&#10;C 708.083 712.343 711.369 711.192 712.424 711.825&#10;C 712.115 717.475 712.8 723.217 712.29 728.864&#10;C 708.731 730.456 703.598 730.399 699.768 730.315&#10;C 696.612 730.246 693.4 729.646 690.396 728.683&#10;C 688.345 728.024 686.452 727.102 684.599 726.009&#10;C 674.256 719.905 673.918 707.641 673.956 697.036&#10;C 673.979 690.62 674.066 684.211 674.072 677.797&#10;C 674.075 674.719 674.425 671.339 674.02 668.297&#10;C 670.372 668.007 666.456 668.767 662.855 668.188&#10;C 662.532 662.622 662.577 656.833 662.782 651.264 Z"/>
<path fill-rule="evenodd" fill="rgb(0,0,0)" opacity="1" d="M 716.467 686.612&#10;C 717.621 678.035 719.574 670.043 725.21 663.156&#10;C 738.352 647.097 764.065 643.702 779.676 658.364&#10;C 787.408 665.626 791.216 675.867 792.137 686.254&#10;C 792.443 689.71 792.036 693.175 792.15 696.623&#10;C 790.573 696.167 788.632 696.371 787.003 696.36&#10;C 783.837 696.339 780.67 696.369 777.504 696.374&#10;C 768.503 696.388 759.503 696.323 750.502 696.35&#10;C 746.071 696.363 741.206 696.983 736.828 696.356&#10;C 737.064 698.706 737.936 701.104 739.062 703.171&#10;C 740.082 705.041 741.422 706.799 743.026 708.207&#10;C 753.315 717.244 767.527 712.768 777.684 706.282&#10;C 778.478 706.657 779.358 708.551 779.866 709.307&#10;C 781.534 711.79 783.348 714.179 785.114 716.593&#10;C 785.734 717.442 787.341 718.799 787.363 719.856&#10;C 786.461 720.808 785.092 721.439 784.023 722.201&#10;C 780.258 724.881 776.051 726.862 771.668 728.301&#10;C 753.224 734.358 731.417 728.692 721.647 711.075&#10;C 719.977 708.062 718.645 704.892 717.828 701.538&#10;C 716.652 696.714 716.065 691.58 716.467 686.612 Z&#10;M 737.406 680.072&#10;C 737.265 680.737 736.894 681.44 737.367 681.98&#10;C 740.973 681.56 744.865 681.959 748.504 681.955&#10;C 756.322 681.947 764.154 682.007 771.969 681.867&#10;C 772.133 680.336 771.604 678.678 771.179 677.223&#10;C 768.77 668.97 760.482 664.517 752.118 666.001&#10;C 744.177 667.409 739.842 672.831 737.406 680.072 Z"/>
<path fill-rule="evenodd" fill="rgb(0,0,1)" opacity="1" d="M 801.301 651.245&#10;C 803.212 650.744 805.249 650.92 807.207 650.89&#10;C 811.528 650.824 815.881 651.087 820.196 650.855&#10;C 820.62 654.231 820.099 657.683 820.431 661.048&#10;C 821.164 660.644 821.45 659.623 821.958 658.976&#10;C 823.054 657.576 824.304 656.301 825.687 655.182&#10;C 831.084 650.811 839.498 648.496 846.401 649.526&#10;C 846.295 654.502 846.321 659.518 846.337 664.503&#10;C 846.341 665.771 846.395 667.038 846.385 668.305&#10;C 846.384 668.499 846.496 669.596 846.368 669.698&#10;C 843.836 668.972 840.934 668.94 838.322 669.142&#10;C 836.219 669.305 834.288 669.78 832.347 670.601&#10;C 830.717 671.291 829.168 672.224 827.764 673.302&#10;C 818.364 680.516 821.136 694.707 821.106 704.996&#10;C 821.095 708.672 821.014 712.348 820.994 716.022&#10;C 820.978 718.854 821.096 721.682 821.112 724.513&#10;C 821.12 725.92 821.371 727.559 820.913 728.907&#10;C 814.469 728.845 808.001 729.052 801.562 728.861&#10;C 801.178 725.12 801.401 721.265 801.394 717.5&#10;C 801.381 710.666 801.386 703.833 801.365 696.999&#10;C 801.319 681.801 800.62 666.425 801.301 651.245 Z"/>

</svg>